<svg width="27" height="18" viewBox="0 0 27 18" fill="none" xmlns="http://www.w3.org/2000/svg">
<path d="M16.952 15.437C16.3657 16.0228 16.3657 16.9725 16.952 17.5583C17.5384 18.1441 18.489 18.1441 19.0753 17.5583L26.5603 10.0816C27.1466 9.49583 27.1466 8.54608 26.5603 7.96029L19.0521 0.439341C18.4658 -0.146447 17.5151 -0.146447 16.9288 0.439342C16.3425 1.02513 16.3425 1.97488 16.9288 2.56066L21.8739 7.52095L1.41799 7.52095C0.634855 7.52095 -7.24234e-08 8.19253 0 9.02096C7.24234e-08 9.84938 0.634855 10.521 1.41799 10.521L21.8739 10.521L16.952 15.437Z" fill="black"/>
</svg>
