<svg width="100" height="100" viewBox="0 0 100 100" fill="none" xmlns="http://www.w3.org/2000/svg">
<path fill-rule="evenodd" clip-rule="evenodd" d="M50 0C22.3858 0 0 22.3858 0 50C0 77.6142 22.3858 100 50 100C77.6142 100 100 77.6142 100 50C100 22.3858 77.6142 0 50 0ZM34.9745 25C35.1224 25.1173 35.2398 25.1173 35.3571 25.102C35.9643 25.051 36.4847 25.199 36.8215 25.7551C36.8809 25.8516 36.9405 25.9481 37 26.0445C37.6961 27.1728 38.3935 28.303 39.0562 29.4593C39.536 30.2952 39.9937 31.1448 40.4519 31.9952C40.7879 32.6188 41.1241 33.2429 41.4695 33.8624C41.6032 34.1135 41.7702 34.35 41.9373 34.5866C42.0317 34.7201 42.126 34.8537 42.2144 34.99C42.4275 35.3289 42.6313 35.677 42.8303 36.0169L42.8624 36.0716C43.291 36.8829 43.2705 37.6992 42.6328 38.3472C41.9614 39.0336 41.2399 39.6838 40.5197 40.3328C40.2656 40.5617 40.0117 40.7905 39.7603 41.0207C39.4476 41.3076 39.1304 41.5899 38.8133 41.8721C38.3128 42.3175 37.8127 42.7625 37.3317 43.2248C36.7194 43.8166 36.5612 44.5564 36.9745 45.3371C37.0127 45.4086 37.0509 45.4801 37.0891 45.5516C37.6883 46.6739 38.2868 47.7949 38.9439 48.8933C41.5358 53.2148 44.8471 56.8883 49.0308 59.72C50.6431 60.8169 52.3217 61.8221 54.0156 62.7813C55.6126 63.6843 56.2351 63.5313 57.4749 62.1486C58.1297 61.4213 58.7714 60.6874 59.4139 59.9526C59.9028 59.3935 60.3922 58.8338 60.8882 58.2761C61.1637 57.9648 61.4953 57.6893 61.8168 57.424C62.4698 56.873 63.1841 56.8118 63.9342 57.1893C63.9812 57.2122 64.029 57.2347 64.0769 57.2572C64.2422 57.3347 64.4091 57.413 64.5515 57.5159C65.882 58.4676 67.3173 59.2324 68.7508 59.9961C69.4613 60.3747 70.1714 60.753 70.868 61.1537C71.5861 61.5664 72.2918 61.9977 72.9957 62.4278C73.3969 62.6731 73.7976 62.918 74.1996 63.1588C74.7966 63.5109 75.0364 64.0262 74.9956 64.7354C74.8833 66.7303 74.5517 68.6895 73.3935 70.3732C72.9088 71.0722 72.22 71.6845 71.5261 72.1794C69.6026 73.5263 67.4546 74.358 65.1689 74.8682C63.0923 75.3325 61.0208 75.1641 59.031 74.5417C55.1891 73.358 51.4033 72.0008 47.9186 69.9446C44.7553 68.0722 41.8777 65.8119 39.2144 63.2864C35.8419 60.0771 32.8316 56.5771 30.3979 52.5923C28.8111 50.0055 27.6784 47.2198 26.6529 44.3779C26.0305 42.6636 25.4182 40.9646 25.1427 39.1482C24.8264 37.092 25.0457 35.1124 25.7039 33.1634C26.2958 31.4032 27.0356 29.7195 28.1529 28.2143C29.0305 27.046 30.1275 26.1888 31.5459 25.8061C32.3473 25.5941 33.1538 25.4124 33.96 25.2308C34.2984 25.1546 34.6366 25.0784 34.9745 25Z" fill="#F76D0A"/>
</svg>
