<svg width="86" height="86" viewBox="0 0 86 86" fill="none" xmlns="http://www.w3.org/2000/svg">
<path fill-rule="evenodd" clip-rule="evenodd" d="M36.1108 85.4495C38.3701 85.8157 40.6892 86 42.9988 86C44.9996 86 47.0148 85.8612 48.9846 85.586C59.1659 84.1667 68.5238 79.1096 75.3353 71.3432C82.2137 63.505 86 53.4386 86 42.9988C86 19.2903 66.7073 0 42.9988 0C19.2903 0 0 19.288 0 42.9988C0 53.2806 3.68572 63.2297 10.3775 71.0153C16.9975 78.7171 26.1377 83.8436 36.1108 85.4495ZM2.87201 42.9988C2.87201 20.8727 20.8717 2.87266 42.9976 2.87201C65.1259 2.87266 83.1256 20.8727 83.1256 42.9988C83.1256 62.8444 68.377 79.8825 48.7858 82.7121V56.0613H58.2132L59.9866 43.8624H48.7858V34.8084L48.7882 34.806C48.7882 32.64 50.5425 30.8857 52.7085 30.8857H59.989V20.3382H48.8456C48.836 20.3382 48.8265 20.34 48.8169 20.3418C48.8073 20.3436 48.7978 20.3454 48.7882 20.3454V20.3382C41.9121 20.3382 36.3404 25.9123 36.3404 32.786V43.8624H26.0107V56.0613H36.3404V82.5762C16.933 79.3414 2.87201 62.7315 2.87201 42.9988Z" fill="#F76D0A"/>
</svg>
