<svg width="100" height="100" viewBox="0 0 100 100" fill="none" xmlns="http://www.w3.org/2000/svg">
<path fill-rule="evenodd" clip-rule="evenodd" d="M0 50C0 77.6142 22.3858 100 50 100C77.6142 100 100 77.6142 100 50C100 22.3858 77.6142 0 50 0C22.3858 0 0 22.3858 0 50ZM50.0575 80C50.0575 80 36.6352 59.9263 31.8839 48.766C30.6754 46.1648 30 43.2606 30 40.1972C30 29.0426 38.9543 20 50 20C61.0457 20 70 29.0426 70 40.1972C70 42.6519 69.5664 45.0042 68.7723 47.1805H68.7936C65.6097 55.6476 50.0575 80 50.0575 80Z" fill="#F76D0A"/>
<path d="M50 51.6667C56.4433 51.6667 61.6667 46.4433 61.6667 40C61.6667 33.5567 56.4433 28.3333 50 28.3333C43.5567 28.3333 38.3333 33.5567 38.3333 40C38.3333 46.4433 43.5567 51.6667 50 51.6667Z" fill="#F76D0A"/>
</svg>
