<svg width="100" height="100" viewBox="0 0 100 100" fill="none" xmlns="http://www.w3.org/2000/svg">
<path fill-rule="evenodd" clip-rule="evenodd" d="M50 0C22.3858 0 0 22.3858 0 50C0 77.6142 22.3858 100 50 100C77.6142 100 100 77.6142 100 50C100 22.3858 77.6142 0 50 0ZM27.8745 25H72.1257C76.4708 25 80 28.5527 80 32.9353V54.9178C80 55.3257 79.9679 55.7267 79.909 56.1183C79.9679 56.7037 80 57.2955 80 57.8934C80 70.494 66.5686 80.7127 49.9998 80.7127C33.4307 80.7127 20 70.494 20 57.8934C20 57.2957 20.0292 56.7037 20.0908 56.1183C20.0306 55.7265 20 55.3257 20 54.9178V32.9351C20 28.5539 23.5254 25 27.8745 25Z" fill="#F76D0A"/>
<path d="M68.397 47.0994L52.902 62.5927C52.1149 63.3798 51.0807 63.7675 50.0487 63.7587C48.9846 63.7953 47.9096 63.4071 47.0951 62.5927L31.6037 47.0994C30.0471 45.5435 30.0509 43.0197 31.6037 41.4667C33.1584 39.9103 35.6777 39.9079 37.2364 41.4667L50 54.231L62.7643 41.4667C64.3159 39.9103 66.8444 39.9144 68.397 41.4667C69.9538 43.0221 69.9538 45.5411 68.397 47.0994Z" fill="#F76D0A"/>
</svg>
