<svg width="86" height="86" viewBox="0 0 86 86" fill="none" xmlns="http://www.w3.org/2000/svg">
<path fill-rule="evenodd" clip-rule="evenodd" d="M36.1118 85.4495C38.3712 85.8157 40.6879 86 43 86H42.9976C44.9985 86 47.0137 85.8612 48.9835 85.586C59.1651 84.1667 68.5233 79.1096 75.335 71.3432C82.2136 63.505 86 53.4386 86 42.9988C86 19.2903 66.7091 0 43 0C19.2909 0 0 19.2879 0 42.9988C0 53.2806 3.68588 63.2297 10.3778 71.0153C16.998 78.7171 26.1385 83.8436 36.1118 85.4495ZM2.87209 42.9988C2.87209 20.8723 20.8729 2.87201 43 2.87201C65.127 2.87201 83.1279 20.8723 83.1279 42.9988C83.1279 62.9114 68.2792 79.9975 48.5886 82.7403C44.6275 83.2931 40.5037 83.2477 36.5689 82.6134C17.0435 79.471 2.87209 62.8109 2.87209 42.9988ZM16.5289 40.9596C16.4116 41.0123 16.2944 41.0674 16.1771 41.1272L16.1795 41.1248C15.6936 41.3713 15.2292 41.6752 14.9923 42.1563C14.6117 42.9222 14.9732 43.8891 15.605 44.4635C16.2369 45.0403 17.0794 45.3131 17.8955 45.5668C19.4321 46.0479 20.9735 46.5122 22.5172 46.967C24.3601 47.5102 26.2772 48.0392 28.18 47.7687C30.3077 47.4672 32.1579 46.2035 33.9242 44.9781C39.3357 41.2205 44.7472 37.4606 50.1587 33.7006C50.5871 33.4015 51.1304 33.0903 51.6019 33.3201C52.3942 33.7054 51.9394 34.9165 51.3626 35.5842C49.4889 37.757 47.3186 39.6519 45.1503 41.5452C42.5824 43.7874 40.0171 46.0272 37.9499 48.7237C37.4904 49.322 37.0404 49.9945 37.0332 50.7484C37.0213 52.0001 38.182 52.9 39.2256 53.5917C41.4186 55.0433 43.6116 56.4955 45.8046 57.9477C48.0011 59.4022 50.1976 60.8568 52.3941 62.3107C53.452 63.0119 54.5314 63.7227 55.7545 64.0602C56.9751 64.3977 58.3849 64.3067 59.3757 63.5145C60.5485 62.5787 60.8524 60.9513 61.0774 59.4698C62.7217 48.6614 64.3636 37.8555 66.0055 27.0471C66.24 25.4962 66.3956 23.6869 65.2826 22.5836C65.0457 22.3514 64.7681 22.1647 64.4641 22.0331C63.5881 21.6525 62.5757 21.7244 61.659 21.8991C61.4289 21.9426 61.2014 22.0036 60.9741 22.0647C60.7263 22.1312 60.4786 22.1976 60.2277 22.2413C59.8206 22.3132 59.4086 22.5097 59.0118 22.699C58.8534 22.7746 58.6975 22.849 58.5452 22.9139L51.3434 25.9941L44.1416 29.0743L36.9399 32.1545L29.7381 35.2348C29.1394 35.4905 28.5401 35.7468 27.9408 36.0031C27.3398 36.2602 26.7388 36.5172 26.1384 36.7737C25.5377 37.0322 24.9393 37.2883 24.3386 37.5444C24.189 37.609 24.0388 37.673 23.8886 37.737C23.7384 37.801 23.5882 37.8651 23.4387 37.9297C23.2807 37.9967 23.1251 38.0637 22.9696 38.1307C22.941 38.1436 22.9058 38.1629 22.8674 38.1838C22.7705 38.2368 22.6535 38.3006 22.5747 38.3006L22.4883 38.3376C20.4946 39.1917 18.499 40.0466 16.5289 40.9596Z" fill="#F76D0A"/>
</svg>
