<svg width="86" height="86" viewBox="0 0 86 86" fill="none" xmlns="http://www.w3.org/2000/svg">
<path d="M42.9999 86C40.6903 86 38.3711 85.8157 36.1118 85.4495C26.1384 83.8436 16.998 78.7171 10.3778 71.0153C3.68582 63.2297 0 53.2806 0 42.9988C0 19.288 19.2908 0 42.9999 0C66.7091 0 86 19.2903 86 42.9988C86 53.4386 82.2136 63.505 75.3349 71.3432C68.5233 79.1096 59.165 84.1667 48.9835 85.586C47.0137 85.8612 44.9985 86 42.9976 86H42.9999ZM42.9999 2.87201C20.8729 2.87201 2.87209 20.8723 2.87209 42.9988C2.87209 62.8085 17.0435 79.471 36.5689 82.6134C40.5061 83.2477 44.6275 83.2907 48.5886 82.7403C68.2792 79.9975 83.1279 62.9114 83.1279 42.9988C83.1279 20.8723 65.127 2.87201 42.9999 2.87201Z" fill="#F76D0A"/>
<path d="M67.5683 27.7725C66.4147 28.938 64.8158 29.6584 63.0447 29.6584C62.8197 29.6584 62.5948 29.6465 62.377 29.6225C64.2248 28.5144 65.6512 26.7793 66.362 24.709C66.362 24.709 66.3644 24.709 66.3644 24.7066C66.4625 24.429 66.5463 24.149 66.6133 23.8594C65.1509 25.4222 63.1524 26.4801 60.9098 26.7314C60.5651 26.7721 60.2157 26.7912 59.8615 26.7912C59.749 26.7912 59.6413 26.7888 59.5336 26.7816C58.7749 25.9847 57.8702 25.3265 56.8674 24.843C55.7497 24.2974 54.5002 23.9766 53.1815 23.936C53.0738 23.9288 52.9661 23.9264 52.8536 23.9264C51.7359 23.9264 50.6637 24.125 49.6728 24.4912C49.4191 24.5846 49.1725 24.6851 48.9308 24.8023C45.7907 26.2743 43.6174 29.4646 43.6174 33.1623C43.6174 33.921 43.7108 34.6581 43.8807 35.3618C42.9185 35.3235 41.966 35.2301 41.0326 35.0913C40.7334 35.0435 40.4341 34.9932 40.1374 34.9358C37.7559 34.493 35.4846 33.7319 33.3736 32.698C31.4852 31.7742 29.7237 30.6349 28.1225 29.309C26.775 28.1985 25.5424 26.9587 24.4415 25.6041C24.3936 25.5467 24.3457 25.4868 24.3002 25.4294C24.2356 25.5275 24.1757 25.6257 24.1207 25.7286C23.35 27.076 22.9144 28.6341 22.9144 30.2951C22.9144 30.3453 22.9145 30.4004 22.9168 30.4506C22.936 31.6952 23.1992 32.8799 23.6707 33.9569C23.8718 34.4356 24.1159 34.8879 24.3959 35.3163C25.2216 36.5872 26.349 37.645 27.6797 38.3774C27.7395 38.4157 27.8018 38.4468 27.864 38.4755C27.7683 38.4947 27.6701 38.5114 27.572 38.521C27.2991 38.5569 27.0167 38.576 26.7343 38.576C25.3174 38.576 23.9986 38.1333 22.9192 37.3794C22.912 37.4583 22.9121 37.5397 22.9121 37.6211C22.9121 40.2586 24.0178 42.6375 25.7889 44.3153C27.1675 45.6316 28.9506 46.5148 30.9323 46.7732C30.2191 47.0341 29.4484 47.1753 28.6467 47.1753C27.7778 47.1753 26.9449 47.0102 26.1838 46.7062C27.3183 50.3944 30.7002 53.0989 34.7307 53.2185C32.2679 55.777 28.8094 57.3662 24.9823 57.3662C22.6033 57.3662 20.3679 56.7511 18.4292 55.6741C23.0892 59.7069 29.166 62.1433 35.8125 62.1433C50.5009 62.1433 62.4057 50.2388 62.4057 35.5509C62.4057 34.7419 62.3698 33.9425 62.298 33.1527C64.7273 32.193 66.654 30.2328 67.5659 27.7749L67.5683 27.7725Z" fill="#F76D0A"/>
</svg>
