<svg width="86" height="86" viewBox="0 0 86 86" fill="none" xmlns="http://www.w3.org/2000/svg">
<path fill-rule="evenodd" clip-rule="evenodd" d="M0 43C0 66.7482 19.2518 86 43 86C66.7482 86 86 66.7482 86 43C86 19.2518 66.7482 0 43 0C19.2518 0 0 19.2518 0 43ZM69.9863 41.3544C69.9807 55.449 58.5149 66.9175 44.4173 66.9233H44.4068C40.1274 66.9218 35.9226 65.8481 32.1879 63.811L18.6333 67.3667L22.2608 54.117C20.0232 50.2393 18.8458 45.8407 18.8477 41.3342C18.8533 27.2364 30.3236 15.7667 44.4171 15.7667C51.2571 15.7696 57.677 18.4324 62.5045 23.2655C67.3319 28.0984 69.989 34.5224 69.9863 41.3544Z" fill="#F76D0A"/>
<path fill-rule="evenodd" clip-rule="evenodd" d="M24.7725 61.2921L32.8159 59.1821L33.592 59.6427C36.8549 61.579 40.5952 62.6035 44.4087 62.605H44.4173C56.1308 62.605 65.6645 53.0712 65.6691 41.3529C65.6713 35.6742 63.4629 30.3349 59.4505 26.3178C55.4381 22.3007 50.1021 20.0873 44.4257 20.0854C32.7032 20.0854 23.1694 29.6182 23.1648 41.3357C23.1631 45.3513 24.2867 49.2621 26.4141 52.6457L26.9194 53.4498L24.7725 61.2921ZM56.4239 46.8593C56.8695 47.0747 57.1704 47.2201 57.2989 47.4346C57.4586 47.701 57.4586 48.9802 56.9264 50.4728C56.3938 51.9651 53.8415 53.3271 52.6139 53.5105C51.5132 53.6751 50.1203 53.7437 48.5899 53.2573C47.662 52.9629 46.472 52.5698 44.9477 51.9115C38.9583 49.3253 34.9107 43.5203 34.1457 42.4231C34.0921 42.3463 34.0546 42.2925 34.0337 42.2646L34.0285 42.2577C33.6904 41.8066 31.425 38.7839 31.425 35.6555C31.425 32.7127 32.8706 31.1702 33.536 30.4601C33.5815 30.4115 33.6235 30.3668 33.661 30.3258C34.2466 29.6861 34.9388 29.5262 35.3647 29.5262C35.7906 29.5262 36.217 29.5302 36.5892 29.5489C36.6351 29.5512 36.6829 29.5509 36.7323 29.5506C37.1046 29.5484 37.5688 29.5457 38.0267 30.6456C38.2028 31.0688 38.4605 31.6963 38.7324 32.3581C39.2821 33.6965 39.8896 35.1754 39.9965 35.3894C40.1562 35.7092 40.2627 36.0821 40.0497 36.5087C40.0177 36.5727 39.9882 36.633 39.9599 36.6907C39.8 37.0173 39.6823 37.2575 39.4109 37.5744C39.3041 37.6991 39.1938 37.8334 39.0835 37.9678C38.8637 38.2355 38.6439 38.5031 38.4525 38.6938C38.1327 39.0123 37.7997 39.358 38.1724 39.9976C38.5451 40.6372 39.8273 42.7293 41.7266 44.4234C43.7682 46.2445 45.5427 47.0142 46.4421 47.4044C46.6177 47.4805 46.76 47.5422 46.8644 47.5945C47.503 47.9144 47.8757 47.8609 48.2484 47.4346C48.6212 47.0082 49.8455 45.569 50.2714 44.9295C50.6972 44.2901 51.1233 44.3966 51.7088 44.6097C52.2946 44.8231 55.4356 46.3685 56.0745 46.6883C56.1992 46.7508 56.3158 46.8071 56.4239 46.8593Z" fill="#F76D0A"/>
</svg>
