<svg width="55" height="55" viewBox="0 0 55 55" fill="none" xmlns="http://www.w3.org/2000/svg">
<path d="M23.5716 20.9524C29.3574 20.9524 34.0477 16.262 34.0477 10.4762C34.0477 4.69035 29.3574 0 23.5716 0C17.7857 0 13.0954 4.69035 13.0954 10.4762C13.0954 16.262 17.7857 20.9524 23.5716 20.9524Z" fill="white"/>
<path d="M3.86736 34.5981C7.3096 29.7996 13.4059 26.1905 23.5713 26.1905C24.6025 26.1905 25.5919 26.2276 26.5409 26.2994C25.5835 26.8305 24.7609 27.5965 24.2369 28.5312L22.4567 31.7066C20.9819 34.3372 21.8571 37.701 24.4115 39.2198L24.5222 39.2856L24.4114 39.3515C21.857 40.8703 20.9818 44.2341 22.4565 46.8647L24.2368 50.0401C24.7063 50.8776 25.4156 51.6992 26.2467 52.381H5.01129C2.46904 52.381 -0.0106046 50.4504 3.41109e-05 47.4927C0.0106141 44.5513 0.540496 39.2358 3.86736 34.5981Z" fill="white"/>
<path d="M45.0198 39.2857C45.0198 41.8893 42.9966 44 40.5008 44C38.005 44 35.9817 41.8893 35.9817 39.2857C35.9817 36.6821 38.005 34.5714 40.5008 34.5714C42.9966 34.5714 45.0198 36.6821 45.0198 39.2857Z" fill="white"/>
<path fill-rule="evenodd" clip-rule="evenodd" d="M52.7397 39.342C54.9011 40.6438 55.6417 43.527 54.3938 45.7818L52.8875 48.5036C51.6396 50.7584 48.8758 51.531 46.7143 50.2292L46.6206 50.1727V50.2857C46.6206 52.8893 44.5973 55 42.1015 55H39.0888C36.593 55 34.5698 52.8893 34.5698 50.2857V50.1729L34.4761 50.2293C32.3147 51.5311 29.5509 50.7586 28.303 48.5038L26.7967 45.782C25.5488 43.5271 26.2893 40.6439 28.4508 39.3421L28.5446 39.2856L28.4508 39.2292C26.2894 37.9274 25.5489 35.0441 26.7968 32.7893L28.3031 30.0675C29.551 27.8127 32.3148 27.0402 34.4762 28.342L34.5698 28.3984V28.2857C34.5698 25.6821 36.5931 23.5714 39.0889 23.5714H42.1015C44.5974 23.5714 46.6206 25.6821 46.6206 28.2857V28.3985L46.7142 28.3421C48.8757 27.0403 51.6395 27.8129 52.8874 30.0677L54.3937 32.7895C55.6416 35.0443 54.9011 37.9275 52.7396 39.2293L52.6461 39.2856L52.7397 39.342ZM40.5008 47.1429C44.6604 47.1429 48.0325 43.6251 48.0325 39.2857C48.0325 34.9463 44.6604 31.4286 40.5008 31.4286C36.3411 31.4286 32.969 34.9463 32.969 39.2857C32.969 43.6251 36.3411 47.1429 40.5008 47.1429Z" fill="white"/>
</svg>
