<svg width="36" height="32" viewBox="0 0 36 32" fill="none" xmlns="http://www.w3.org/2000/svg">
<path d="M19.5009 1.55455C19.5009 0.695997 18.8298 0 18.0019 0C17.174 0 16.5029 0.695997 16.5029 1.55455V3.99339C16.5029 4.85195 17.174 5.54795 18.0019 5.54795C18.8298 5.54795 19.5009 4.85195 19.5009 3.99339V1.55455Z" fill="#F76D0A"/>
<path d="M22.9228 13.6508C22.9228 16.3698 20.7186 18.574 17.9996 18.574C15.2806 18.574 13.0764 16.3698 13.0764 13.6508C13.0764 10.9317 15.2806 8.72754 17.9996 8.72754C20.7186 8.72754 22.9228 10.9317 22.9228 13.6508Z" fill="#F76D0A"/>
<path d="M17.9997 20.3749C13.9946 20.3749 11.5928 21.8656 10.2366 23.8477C8.92584 25.7634 8.71707 27.959 8.7129 29.174C8.70871 30.3957 9.68566 31.1932 10.6873 31.1932H25.312C26.3137 31.1932 27.2906 30.3957 27.2864 29.174C27.2822 27.959 27.0735 25.7634 25.7627 23.8477C24.4065 21.8656 22.0047 20.3749 17.9997 20.3749Z" fill="#F76D0A"/>
<path d="M11.7354 15.8081C11.7354 18.0536 9.91505 19.874 7.66953 19.874C5.424 19.874 3.60365 18.0536 3.60365 15.8081C3.60365 13.5625 5.424 11.7422 7.66953 11.7422C9.91505 11.7422 11.7354 13.5625 11.7354 15.8081Z" fill="#F76D0A"/>
<path d="M8.55185 22.9866C8.89997 22.4778 9.3047 21.9956 9.77241 21.5514C9.1395 21.4281 8.4405 21.3612 7.66956 21.3612C4.36199 21.3612 2.37838 22.5924 1.25835 24.2293C0.175865 25.8114 0.0034536 27.6247 1.10989e-05 28.6281C-0.0034505 29.6371 0.803368 30.2956 1.63056 30.2956H6.82802C6.74294 30.0433 6.69626 29.7668 6.69728 29.4696C6.70235 27.9908 6.95646 25.3183 8.55185 22.9866Z" fill="#F76D0A"/>
<path d="M29.1737 30.2956C29.2587 30.0433 29.3054 29.7668 29.3044 29.4696C29.2993 27.9908 29.0452 25.3183 27.4498 22.9866C27.1016 22.4777 26.6967 21.9953 26.2289 21.5511C26.8612 21.428 27.5596 21.3612 28.3297 21.3612C31.6373 21.3612 33.6209 22.5924 34.7409 24.2293C35.8234 25.8114 35.9958 27.6247 35.9993 28.6281C36.0027 29.6371 35.1959 30.2956 34.3687 30.2956H29.1737Z" fill="#F76D0A"/>
<path d="M28.3297 19.874C30.5752 19.874 32.3956 18.0536 32.3956 15.8081C32.3956 13.5625 30.5752 11.7422 28.3297 11.7422C26.0842 11.7422 24.2638 13.5625 24.2638 15.8081C24.2638 18.0536 26.0842 19.874 28.3297 19.874Z" fill="#F76D0A"/>
<path d="M26.2714 3.15503C26.8567 3.74041 26.8391 4.70711 26.2321 5.3142L24.5075 7.03872C23.9004 7.64581 22.9338 7.6634 22.3484 7.07802C21.763 6.49263 21.7806 5.52594 22.3877 4.91885L24.1122 3.19433C24.7193 2.58724 25.686 2.56964 26.2714 3.15503Z" fill="#F76D0A"/>
<path d="M11.8924 3.19445C11.2854 2.58736 10.3187 2.56977 9.73327 3.15515C9.14789 3.74054 9.16548 4.70723 9.77257 5.31432L11.4971 7.03884C12.1042 7.64593 13.0709 7.66353 13.6563 7.07814C14.2416 6.49276 14.2241 5.52606 13.617 4.91897L11.8924 3.19445Z" fill="#F76D0A"/>
</svg>
