<svg width="428" height="926" viewBox="0 0 428 926" fill="none" xmlns="http://www.w3.org/2000/svg">
<g id="Payment successful screen" clip-path="url(#clip0_9_176)">
<rect width="428" height="926" fill="white"/>
<g id="confetti">
<rect id="Rectangle" x="275" y="101" width="30.482" height="5.28" transform="rotate(-153 275 101)" fill="#ECB43C"/>
<rect id="Rectangle_2" x="64.64" y="325" width="11.482" height="9.28" transform="rotate(30 64.64 325)" fill="#FDA5A5" fill-opacity="0.85"/>
<rect id="Rectangle_3" x="308" y="589" width="17.482" height="8.28" transform="rotate(-25 308 589)" fill="#56B8A5" fill-opacity="0.75"/>
<rect id="Rectangle_4" x="385" y="269" width="15.482" height="7.28" transform="rotate(-27 385 269)" fill="#56B8A5" fill-opacity="0.85"/>
<rect id="Rectangle_5" x="72" y="630" width="14.482" height="8.28" transform="rotate(-51 72 630)" fill="#3DBD96" fill-opacity="0.35"/>
<rect id="Rectangle_6" x="76" y="391" width="8.482" height="4.28" transform="rotate(-168 76 391)" fill="#ECB43C" fill-opacity="0.35"/>
<rect id="Rectangle_7" x="1.00003" y="400" width="16.482" height="4.28" transform="rotate(-176 1.00003 400)" fill="#56B8A5"/>
<rect id="Rectangle_8" x="136.281" y="294.696" width="14.482" height="8.28" transform="rotate(-148 136.281 294.696)" fill="#56B8A5" fill-opacity="0.35"/>
<rect id="Rectangle_9" x="256" y="31" width="37.482" height="5.28" transform="rotate(6 256 31)" fill="#56B8A5" fill-opacity="0.9"/>
<rect id="Rectangle_10" x="99" y="9" width="9.482" height="7.28" transform="rotate(-131 99 9)" fill="#3DBD96" fill-opacity="0.65"/>
<rect id="Rectangle_11" x="357" y="409" width="22.482" height="8.28" transform="rotate(-159 357 409)" fill="#3DBD96"/>
<rect id="Rectangle_12" x="120" y="94.9999" width="25.482" height="4.28" transform="rotate(-171 120 94.9999)" fill="#ECB43C"/>
<rect id="Rectangle_13" x="116" y="702" width="33.482" height="7.28" transform="rotate(-19 116 702)" fill="#56B8A5" fill-opacity="0.45"/>
<rect id="Rectangle_14" x="372" y="569" width="29.482" height="4.28" transform="rotate(-178 372 569)" fill="#FDA5A5" fill-opacity="0.65"/>
<rect id="Rectangle_15" x="344.477" y="136.846" width="32.482" height="4.28" transform="rotate(-179 344.477 136.846)" fill="#ECB43C" fill-opacity="0.85"/>
<rect id="Rectangle_16" x="93.4288" y="276.968" width="36.482" height="4.28" transform="rotate(158 93.4288 276.968)" fill="#3DBD96" fill-opacity="0.9"/>
<rect id="Rectangle_17" x="381" y="726" width="16.482" height="8.28" transform="rotate(-136 381 726)" fill="#FDA5A5" fill-opacity="0.85"/>
<rect id="Rectangle_18" x="16" y="134" width="16.482" height="7.28" transform="rotate(90 16 134)" fill="#3DBD96" fill-opacity="0.9"/>
<rect id="Rectangle_19" x="318" y="605" width="31.482" height="6.28" transform="rotate(-136 318 605)" fill="#56B8A5" fill-opacity="0.75"/>
<rect id="Rectangle_20" x="15" y="837" width="21.482" height="6.28" transform="rotate(39 15 837)" fill="#56B8A5" fill-opacity="0.6"/>
<rect id="Rectangle_21" x="351" y="784" width="15.482" height="6.28" transform="rotate(96 351 784)" fill="#3DBD96" fill-opacity="0.85"/>
<rect id="Rectangle_22" x="184.998" y="306" width="11.482" height="7.28" transform="rotate(74 184.998 306)" fill="#ECB43C" fill-opacity="0.75"/>
<rect id="Rectangle_23" x="78" y="25" width="29.482" height="6.28" transform="rotate(133 78 25)" fill="#ECB43C" fill-opacity="0.85"/>
<rect id="Rectangle_24" x="202" y="591.469" width="23.482" height="8.28" transform="rotate(-35 202 591.469)" fill="#FDA5A5" fill-opacity="0.85"/>
<rect id="Rectangle_25" x="361" y="270" width="36.482" height="4.28" transform="rotate(62 361 270)" fill="#56B8A5" fill-opacity="0.75"/>
<rect id="Rectangle_26" x="329" y="918" width="10.482" height="6.28" transform="rotate(-59 329 918)" fill="#FDA5A5" fill-opacity="0.35"/>
<rect id="Rectangle_27" x="110" y="896" width="8.482" height="9.28" transform="rotate(-4 110 896)" fill="#ECB43C" fill-opacity="0.6"/>
<rect id="Rectangle_28" x="347" y="564" width="17.482" height="7.28" transform="rotate(-91 347 564)" fill="#FDA5A5"/>
<rect id="Rectangle_29" x="389" y="284" width="27.482" height="8.28" transform="rotate(-68 389 284)" fill="#56B8A5" fill-opacity="0.35"/>
<rect id="Rectangle_30" x="12" y="555" width="8.482" height="8.28" transform="rotate(-52 12 555)" fill="#3DBD96" fill-opacity="0.6"/>
<rect id="Rectangle_31" x="428" y="410" width="28.482" height="6.28" transform="rotate(-133 428 410)" fill="#3DBD96" fill-opacity="0.6"/>
<rect id="Rectangle_32" x="385" y="337" width="29.482" height="6.28" transform="rotate(109 385 337)" fill="#ECB43C" fill-opacity="0.85"/>
<rect id="Rectangle_33" x="399" y="109" width="14.482" height="4.28" transform="rotate(99 399 109)" fill="#ECB43C" fill-opacity="0.45"/>
<rect id="Rectangle_34" x="178" y="2.99988" width="6.482" height="5.28" transform="rotate(-93 178 2.99988)" fill="#56B8A5" fill-opacity="0.75"/>
<rect id="Rectangle_35" x="312.271" y="282.458" width="36.482" height="4.28" transform="rotate(-149 312.271 282.458)" fill="#ECB43C" fill-opacity="0.85"/>
<rect id="Rectangle_36" x="391" y="585" width="33.482" height="4.28" transform="rotate(-115 391 585)" fill="#FDA5A5" fill-opacity="0.75"/>
<rect id="Rectangle_37" x="195" y="755" width="6.482" height="6.28" transform="rotate(113 195 755)" fill="#FDA5A5" fill-opacity="0.45"/>
<rect id="Rectangle_38" x="24" y="714" width="35.482" height="7.28" transform="rotate(57 24 714)" fill="#FDA5A5" fill-opacity="0.45"/>
<rect id="Rectangle_39" x="48" y="152" width="36.482" height="8.28" transform="rotate(57 48 152)" fill="#ECB43C" fill-opacity="0.85"/>
<rect id="Rectangle_40" x="114.722" y="225.63" width="7.482" height="8.28" transform="rotate(116 114.722 225.63)" fill="#3DBD96" fill-opacity="0.65"/>
<rect id="Rectangle_41" x="10" y="260" width="20.482" height="4.28" transform="rotate(-19 10 260)" fill="#56B8A5" fill-opacity="0.9"/>
<rect id="Rectangle_42" x="25" y="383" width="25.482" height="7.28" transform="rotate(7 25 383)" fill="#3DBD96" fill-opacity="0.6"/>
<rect id="Rectangle_43" x="299" y="19" width="10.482" height="9.28" transform="rotate(170 299 19)" fill="#ECB43C" fill-opacity="0.75"/>
<rect id="Rectangle_44" x="130" y="154" width="10.482" height="6.28" transform="rotate(-129 130 154)" fill="#56B8A5" fill-opacity="0.35"/>
<rect id="Rectangle_45" x="304" y="180" width="18.482" height="8.28" transform="rotate(92 304 180)" fill="#FDA5A5" fill-opacity="0.85"/>
<rect id="Rectangle_46" x="74" y="788" width="31.482" height="8.28" transform="rotate(100 74 788)" fill="#56B8A5" fill-opacity="0.65"/>
<rect id="Rectangle_47" x="224" y="632" width="15.482" height="8.28" transform="rotate(120 224 632)" fill="#3DBD96" fill-opacity="0.85"/>
<rect id="Rectangle_48" x="93" y="923" width="24.482" height="8.28" transform="rotate(136 93 923)" fill="#ECB43C" fill-opacity="0.75"/>
<rect id="Rectangle_49" x="27" y="183" width="27.482" height="4.28" transform="rotate(-27 27 183)" fill="#56B8A5"/>
<rect id="Rectangle_50" x="259" y="165.684" width="8.482" height="9.28" transform="rotate(-52 259 165.684)" fill="#3DBD96" fill-opacity="0.35"/>
<rect id="Rectangle_51" x="310" y="200" width="32.482" height="6.28" transform="rotate(71 310 200)" fill="#ECB43C"/>
<rect id="Rectangle_52" x="343" y="399" width="20.482" height="5.28" transform="rotate(66 343 399)" fill="#ECB43C" fill-opacity="0.6"/>
<rect id="Rectangle_53" x="88" y="769" width="21.482" height="5.28" transform="rotate(-16 88 769)" fill="#FDA5A5" fill-opacity="0.6"/>
<rect id="Rectangle_54" x="361" y="22" width="35.482" height="7.28" transform="rotate(52 361 22)" fill="#FDA5A5" fill-opacity="0.45"/>
<circle id="Ellipse" cx="59.815" cy="671.815" r="2.815" fill="#FDA5A5"/>
<circle id="Ellipse_2" cx="194.815" cy="122.815" r="6.815" fill="#3DBD96" fill-opacity="0.65"/>
<circle id="Ellipse_3" cx="74.815" cy="539.815" r="6.815" fill="#3DBD96" fill-opacity="0.35"/>
<circle id="Ellipse_4" cx="28.815" cy="219.815" r="5.815" fill="#FDA5A5"/>
<circle id="Ellipse_5" cx="301.315" cy="194.315" r="6.315" fill="#FDA5A5" fill-opacity="0.75"/>
<circle id="Ellipse_6" cx="314.315" cy="596.315" r="2.315" fill="#ECB43C" fill-opacity="0.45"/>
<circle id="Ellipse_7" cx="404.315" cy="782.315" r="3.315" fill="#56B8A5" fill-opacity="0.6"/>
<circle id="Ellipse_8" cx="237.815" cy="327.815" r="2.815" fill="#56B8A5" fill-opacity="0.6"/>
<circle id="Ellipse_9" cx="219.815" cy="777.815" r="3.815" fill="#FDA5A5" fill-opacity="0.9"/>
<circle id="Ellipse_10" cx="97.815" cy="889.815" r="4.815" fill="#ECB43C" fill-opacity="0.9"/>
<circle id="Ellipse_11" cx="120.815" cy="736.815" r="4.815" fill="#ECB43C" fill-opacity="0.9"/>
<circle id="Ellipse_12" cx="47.815" cy="365.815" r="4.815" fill="#56B8A5" fill-opacity="0.6"/>
<circle id="Ellipse_13" cx="320.315" cy="52.315" r="5.315" fill="#ECB43C" fill-opacity="0.6"/>
<circle id="Ellipse_14" cx="120.815" cy="446.815" r="3.815" fill="#FDA5A5" fill-opacity="0.35"/>
<circle id="Ellipse_15" cx="354.315" cy="389.315" r="3.315" fill="#56B8A5" fill-opacity="0.85"/>
<circle id="Ellipse_16" cx="354.315" cy="171.315" r="3.315" fill="#3DBD96" fill-opacity="0.75"/>
<circle id="Ellipse_17" cx="32.815" cy="283.815" r="5.815" fill="#56B8A5" fill-opacity="0.65"/>
<circle id="Ellipse_18" cx="74.815" cy="797.815" r="5.815" fill="#FDA5A5" fill-opacity="0.6"/>
<circle id="Ellipse_19" cx="286.815" cy="740.815" r="6.815" fill="#3DBD96" fill-opacity="0.9"/>
<circle id="Ellipse_20" cx="106.815" cy="847.815" r="6.815" fill="#3DBD96" fill-opacity="0.6"/>
<circle id="Ellipse_21" cx="363.815" cy="527.815" r="2.815" fill="#56B8A5" fill-opacity="0.9"/>
<circle id="Ellipse_22" cx="149.315" cy="5.31488" r="3.315" fill="#3DBD96" fill-opacity="0.9"/>
<circle id="Ellipse_23" cx="51.815" cy="927.815" r="2.815" fill="#3DBD96" fill-opacity="0.75"/>
<circle id="Ellipse_24" cx="423.815" cy="498.815" r="3.815" fill="#ECB43C" fill-opacity="0.75"/>
<circle id="Ellipse_25" cx="329.315" cy="110.315" r="2.315" fill="#FDA5A5" fill-opacity="0.65"/>
<circle id="Ellipse_26" cx="52.815" cy="76.815" r="6.815" fill="#ECB43C" fill-opacity="0.85"/>
<circle id="Ellipse_27" cx="136.315" cy="156.315" r="3.315" fill="#ECB43C" fill-opacity="0.6"/>
<circle id="Ellipse_28" cx="251.315" cy="254.315" r="2.315" fill="#ECB43C" fill-opacity="0.45"/>
<circle id="Ellipse_29" cx="387.315" cy="522.315" r="3.315" fill="#3DBD96" fill-opacity="0.45"/>
<circle id="Ellipse_30" cx="277.815" cy="923.815" r="5.815" fill="#FDA5A5" fill-opacity="0.9"/>
<circle id="Ellipse_31" cx="163.315" cy="150.315" r="3.315" fill="#FDA5A5"/>
<circle id="Ellipse_32" cx="127.315" cy="480.315" r="6.315" fill="#ECB43C" fill-opacity="0.75"/>
<circle id="Ellipse_33" cx="249.815" cy="880.815" r="6.815" fill="#FDA5A5" fill-opacity="0.45"/>
<circle id="Ellipse_34" cx="264.315" cy="445.315" r="6.315" fill="#56B8A5" fill-opacity="0.65"/>
<circle id="Ellipse_35" cx="132.315" cy="638.315" r="6.315" fill="#56B8A5" fill-opacity="0.35"/>
<circle id="Ellipse_36" cx="85.815" cy="729.815" r="4.815" fill="#FDA5A5" fill-opacity="0.65"/>
<circle id="Ellipse_37" cx="303.315" cy="916.315" r="3.315" fill="#ECB43C" fill-opacity="0.9"/>
<circle id="Ellipse_38" cx="174.315" cy="559.315" r="4.315" fill="#ECB43C" fill-opacity="0.35"/>
<circle id="Ellipse_39" cx="421.315" cy="191.315" r="4.315" fill="#3DBD96" fill-opacity="0.85"/>
<circle id="Ellipse_40" cx="170.815" cy="455.815" r="6.815" fill="#FDA5A5" fill-opacity="0.65"/>
<circle id="Ellipse_41" cx="411.815" cy="909.815" r="3.815" fill="#FDA5A5" fill-opacity="0.9"/>
<circle id="Ellipse_42" cx="246.315" cy="133.315" r="5.315" fill="#FDA5A5" fill-opacity="0.65"/>
<circle id="Ellipse_43" cx="371.815" cy="610.815" r="5.815" fill="#FDA5A5" fill-opacity="0.75"/>
<circle id="Ellipse_44" cx="406.815" cy="475.815" r="5.815" fill="#ECB43C" fill-opacity="0.9"/>
<circle id="Ellipse_45" cx="47.315" cy="434.315" r="4.315" fill="#3DBD96" fill-opacity="0.45"/>
<circle id="Ellipse_46" cx="111.815" cy="674.815" r="2.815" fill="#3DBD96" fill-opacity="0.9"/>
<circle id="Ellipse_47" cx="168.815" cy="542.815" r="4.815" fill="#56B8A5" fill-opacity="0.65"/>
<circle id="Ellipse_48" cx="172.315" cy="44.315" r="2.315" fill="#56B8A5" fill-opacity="0.85"/>
<circle id="Ellipse_49" cx="306.815" cy="16.815" r="6.815" fill="#3DBD96" fill-opacity="0.35"/>
<circle id="Ellipse_50" cx="243.815" cy="889.815" r="5.815" fill="#3DBD96" fill-opacity="0.6"/>
<circle id="Ellipse_51" cx="111.815" cy="173.815" r="2.815" fill="#ECB43C" fill-opacity="0.45"/>
<circle id="Ellipse_52" cx="111.315" cy="10.315" r="4.315" fill="#FDA5A5" fill-opacity="0.35"/>
<circle id="Ellipse_53" cx="22.815" cy="425.815" r="5.815" fill="#FDA5A5" fill-opacity="0.75"/>
<circle id="Ellipse_54" cx="284.315" cy="808.315" r="6.315" fill="#3DBD96" fill-opacity="0.75"/>
</g>
<g id="Frame 21">
<g id="success icon component">
<path id="Ellipse 9" d="M275.5 232.5C275.5 266.466 247.966 294 214 294C180.034 294 152.5 266.466 152.5 232.5C152.5 198.534 180.034 171 214 171C247.966 171 275.5 198.534 275.5 232.5ZM158.25 232.5C158.25 263.29 183.21 288.25 214 288.25C244.79 288.25 269.75 263.29 269.75 232.5C269.75 201.71 244.79 176.75 214 176.75C183.21 176.75 158.25 201.71 158.25 232.5Z" fill="#00A91B"/>
<path id="Vector" d="M243.506 212.193L205.379 250.319L188.049 232.989" stroke="url(#paint0_linear_9_176)" stroke-width="7.10983" stroke-linecap="round" stroke-linejoin="round"/>
</g>
<g id="Message">
<path id="Successful" d="M166.074 341.688C166.074 341.289 166.012 340.938 165.887 340.633C165.77 340.32 165.559 340.039 165.254 339.789C164.957 339.539 164.543 339.301 164.012 339.074C163.488 338.848 162.824 338.617 162.02 338.383C161.176 338.133 160.414 337.855 159.734 337.551C159.055 337.238 158.473 336.883 157.988 336.484C157.504 336.086 157.133 335.629 156.875 335.113C156.617 334.598 156.488 334.008 156.488 333.344C156.488 332.68 156.625 332.066 156.898 331.504C157.172 330.941 157.562 330.453 158.07 330.039C158.586 329.617 159.199 329.289 159.91 329.055C160.621 328.82 161.414 328.703 162.289 328.703C163.57 328.703 164.656 328.949 165.547 329.441C166.445 329.926 167.129 330.562 167.598 331.352C168.066 332.133 168.301 332.969 168.301 333.859H166.051C166.051 333.219 165.914 332.652 165.641 332.16C165.367 331.66 164.953 331.27 164.398 330.988C163.844 330.699 163.141 330.555 162.289 330.555C161.484 330.555 160.82 330.676 160.297 330.918C159.773 331.16 159.383 331.488 159.125 331.902C158.875 332.316 158.75 332.789 158.75 333.32C158.75 333.68 158.824 334.008 158.973 334.305C159.129 334.594 159.367 334.863 159.688 335.113C160.016 335.363 160.43 335.594 160.93 335.805C161.438 336.016 162.043 336.219 162.746 336.414C163.715 336.688 164.551 336.992 165.254 337.328C165.957 337.664 166.535 338.043 166.988 338.465C167.449 338.879 167.789 339.352 168.008 339.883C168.234 340.406 168.348 341 168.348 341.664C168.348 342.359 168.207 342.988 167.926 343.551C167.645 344.113 167.242 344.594 166.719 344.992C166.195 345.391 165.566 345.699 164.832 345.918C164.105 346.129 163.293 346.234 162.395 346.234C161.605 346.234 160.828 346.125 160.062 345.906C159.305 345.688 158.613 345.359 157.988 344.922C157.371 344.484 156.875 343.945 156.5 343.305C156.133 342.656 155.949 341.906 155.949 341.055H158.199C158.199 341.641 158.312 342.145 158.539 342.566C158.766 342.98 159.074 343.324 159.465 343.598C159.863 343.871 160.312 344.074 160.812 344.207C161.32 344.332 161.848 344.395 162.395 344.395C163.184 344.395 163.852 344.285 164.398 344.066C164.945 343.848 165.359 343.535 165.641 343.129C165.93 342.723 166.074 342.242 166.074 341.688ZM178.66 343.07V333.32H180.84V346H178.766L178.66 343.07ZM179.07 340.398L179.973 340.375C179.973 341.219 179.883 342 179.703 342.719C179.531 343.43 179.25 344.047 178.859 344.57C178.469 345.094 177.957 345.504 177.324 345.801C176.691 346.09 175.922 346.234 175.016 346.234C174.398 346.234 173.832 346.145 173.316 345.965C172.809 345.785 172.371 345.508 172.004 345.133C171.637 344.758 171.352 344.27 171.148 343.668C170.953 343.066 170.855 342.344 170.855 341.5V333.32H173.023V341.523C173.023 342.094 173.086 342.566 173.211 342.941C173.344 343.309 173.52 343.602 173.738 343.82C173.965 344.031 174.215 344.18 174.488 344.266C174.77 344.352 175.059 344.395 175.355 344.395C176.277 344.395 177.008 344.219 177.547 343.867C178.086 343.508 178.473 343.027 178.707 342.426C178.949 341.816 179.07 341.141 179.07 340.398ZM189.219 344.453C189.734 344.453 190.211 344.348 190.648 344.137C191.086 343.926 191.445 343.637 191.727 343.27C192.008 342.895 192.168 342.469 192.207 341.992H194.27C194.23 342.742 193.977 343.441 193.508 344.09C193.047 344.73 192.441 345.25 191.691 345.648C190.941 346.039 190.117 346.234 189.219 346.234C188.266 346.234 187.434 346.066 186.723 345.73C186.02 345.395 185.434 344.934 184.965 344.348C184.504 343.762 184.156 343.09 183.922 342.332C183.695 341.566 183.582 340.758 183.582 339.906V339.414C183.582 338.562 183.695 337.758 183.922 337C184.156 336.234 184.504 335.559 184.965 334.973C185.434 334.387 186.02 333.926 186.723 333.59C187.434 333.254 188.266 333.086 189.219 333.086C190.211 333.086 191.078 333.289 191.82 333.695C192.562 334.094 193.145 334.641 193.566 335.336C193.996 336.023 194.23 336.805 194.27 337.68H192.207C192.168 337.156 192.02 336.684 191.762 336.262C191.512 335.84 191.168 335.504 190.73 335.254C190.301 334.996 189.797 334.867 189.219 334.867C188.555 334.867 187.996 335 187.543 335.266C187.098 335.523 186.742 335.875 186.477 336.32C186.219 336.758 186.031 337.246 185.914 337.785C185.805 338.316 185.75 338.859 185.75 339.414V339.906C185.75 340.461 185.805 341.008 185.914 341.547C186.023 342.086 186.207 342.574 186.465 343.012C186.73 343.449 187.086 343.801 187.531 344.066C187.984 344.324 188.547 344.453 189.219 344.453ZM201.781 344.453C202.297 344.453 202.773 344.348 203.211 344.137C203.648 343.926 204.008 343.637 204.289 343.27C204.57 342.895 204.73 342.469 204.77 341.992H206.832C206.793 342.742 206.539 343.441 206.07 344.09C205.609 344.73 205.004 345.25 204.254 345.648C203.504 346.039 202.68 346.234 201.781 346.234C200.828 346.234 199.996 346.066 199.285 345.73C198.582 345.395 197.996 344.934 197.527 344.348C197.066 343.762 196.719 343.09 196.484 342.332C196.258 341.566 196.145 340.758 196.145 339.906V339.414C196.145 338.562 196.258 337.758 196.484 337C196.719 336.234 197.066 335.559 197.527 334.973C197.996 334.387 198.582 333.926 199.285 333.59C199.996 333.254 200.828 333.086 201.781 333.086C202.773 333.086 203.641 333.289 204.383 333.695C205.125 334.094 205.707 334.641 206.129 335.336C206.559 336.023 206.793 336.805 206.832 337.68H204.77C204.73 337.156 204.582 336.684 204.324 336.262C204.074 335.84 203.73 335.504 203.293 335.254C202.863 334.996 202.359 334.867 201.781 334.867C201.117 334.867 200.559 335 200.105 335.266C199.66 335.523 199.305 335.875 199.039 336.32C198.781 336.758 198.594 337.246 198.477 337.785C198.367 338.316 198.312 338.859 198.312 339.414V339.906C198.312 340.461 198.367 341.008 198.477 341.547C198.586 342.086 198.77 342.574 199.027 343.012C199.293 343.449 199.648 343.801 200.094 344.066C200.547 344.324 201.109 344.453 201.781 344.453ZM214.531 346.234C213.648 346.234 212.848 346.086 212.129 345.789C211.418 345.484 210.805 345.059 210.289 344.512C209.781 343.965 209.391 343.316 209.117 342.566C208.844 341.816 208.707 340.996 208.707 340.105V339.613C208.707 338.582 208.859 337.664 209.164 336.859C209.469 336.047 209.883 335.359 210.406 334.797C210.93 334.234 211.523 333.809 212.188 333.52C212.852 333.23 213.539 333.086 214.25 333.086C215.156 333.086 215.938 333.242 216.594 333.555C217.258 333.867 217.801 334.305 218.223 334.867C218.645 335.422 218.957 336.078 219.16 336.836C219.363 337.586 219.465 338.406 219.465 339.297V340.27H209.996V338.5H217.297V338.336C217.266 337.773 217.148 337.227 216.945 336.695C216.75 336.164 216.438 335.727 216.008 335.383C215.578 335.039 214.992 334.867 214.25 334.867C213.758 334.867 213.305 334.973 212.891 335.184C212.477 335.387 212.121 335.691 211.824 336.098C211.527 336.504 211.297 337 211.133 337.586C210.969 338.172 210.887 338.848 210.887 339.613V340.105C210.887 340.707 210.969 341.273 211.133 341.805C211.305 342.328 211.551 342.789 211.871 343.188C212.199 343.586 212.594 343.898 213.055 344.125C213.523 344.352 214.055 344.465 214.648 344.465C215.414 344.465 216.062 344.309 216.594 343.996C217.125 343.684 217.59 343.266 217.988 342.742L219.301 343.785C219.027 344.199 218.68 344.594 218.258 344.969C217.836 345.344 217.316 345.648 216.699 345.883C216.09 346.117 215.367 346.234 214.531 346.234ZM229.379 342.637C229.379 342.324 229.309 342.035 229.168 341.77C229.035 341.496 228.758 341.25 228.336 341.031C227.922 340.805 227.297 340.609 226.461 340.445C225.758 340.297 225.121 340.121 224.551 339.918C223.988 339.715 223.508 339.469 223.109 339.18C222.719 338.891 222.418 338.551 222.207 338.16C221.996 337.77 221.891 337.312 221.891 336.789C221.891 336.289 222 335.816 222.219 335.371C222.445 334.926 222.762 334.531 223.168 334.188C223.582 333.844 224.078 333.574 224.656 333.379C225.234 333.184 225.879 333.086 226.59 333.086C227.605 333.086 228.473 333.266 229.191 333.625C229.91 333.984 230.461 334.465 230.844 335.066C231.227 335.66 231.418 336.32 231.418 337.047H229.25C229.25 336.695 229.145 336.355 228.934 336.027C228.73 335.691 228.43 335.414 228.031 335.195C227.641 334.977 227.16 334.867 226.59 334.867C225.988 334.867 225.5 334.961 225.125 335.148C224.758 335.328 224.488 335.559 224.316 335.84C224.152 336.121 224.07 336.418 224.07 336.73C224.07 336.965 224.109 337.176 224.188 337.363C224.273 337.543 224.422 337.711 224.633 337.867C224.844 338.016 225.141 338.156 225.523 338.289C225.906 338.422 226.395 338.555 226.988 338.688C228.027 338.922 228.883 339.203 229.555 339.531C230.227 339.859 230.727 340.262 231.055 340.738C231.383 341.215 231.547 341.793 231.547 342.473C231.547 343.027 231.43 343.535 231.195 343.996C230.969 344.457 230.637 344.855 230.199 345.191C229.77 345.52 229.254 345.777 228.652 345.965C228.059 346.145 227.391 346.234 226.648 346.234C225.531 346.234 224.586 346.035 223.812 345.637C223.039 345.238 222.453 344.723 222.055 344.09C221.656 343.457 221.457 342.789 221.457 342.086H223.637C223.668 342.68 223.84 343.152 224.152 343.504C224.465 343.848 224.848 344.094 225.301 344.242C225.754 344.383 226.203 344.453 226.648 344.453C227.242 344.453 227.738 344.375 228.137 344.219C228.543 344.062 228.852 343.848 229.062 343.574C229.273 343.301 229.379 342.988 229.379 342.637ZM241.777 342.637C241.777 342.324 241.707 342.035 241.566 341.77C241.434 341.496 241.156 341.25 240.734 341.031C240.32 340.805 239.695 340.609 238.859 340.445C238.156 340.297 237.52 340.121 236.949 339.918C236.387 339.715 235.906 339.469 235.508 339.18C235.117 338.891 234.816 338.551 234.605 338.16C234.395 337.77 234.289 337.312 234.289 336.789C234.289 336.289 234.398 335.816 234.617 335.371C234.844 334.926 235.16 334.531 235.566 334.188C235.98 333.844 236.477 333.574 237.055 333.379C237.633 333.184 238.277 333.086 238.988 333.086C240.004 333.086 240.871 333.266 241.59 333.625C242.309 333.984 242.859 334.465 243.242 335.066C243.625 335.66 243.816 336.32 243.816 337.047H241.648C241.648 336.695 241.543 336.355 241.332 336.027C241.129 335.691 240.828 335.414 240.43 335.195C240.039 334.977 239.559 334.867 238.988 334.867C238.387 334.867 237.898 334.961 237.523 335.148C237.156 335.328 236.887 335.559 236.715 335.84C236.551 336.121 236.469 336.418 236.469 336.73C236.469 336.965 236.508 337.176 236.586 337.363C236.672 337.543 236.82 337.711 237.031 337.867C237.242 338.016 237.539 338.156 237.922 338.289C238.305 338.422 238.793 338.555 239.387 338.688C240.426 338.922 241.281 339.203 241.953 339.531C242.625 339.859 243.125 340.262 243.453 340.738C243.781 341.215 243.945 341.793 243.945 342.473C243.945 343.027 243.828 343.535 243.594 343.996C243.367 344.457 243.035 344.855 242.598 345.191C242.168 345.52 241.652 345.777 241.051 345.965C240.457 346.145 239.789 346.234 239.047 346.234C237.93 346.234 236.984 346.035 236.211 345.637C235.438 345.238 234.852 344.723 234.453 344.09C234.055 343.457 233.855 342.789 233.855 342.086H236.035C236.066 342.68 236.238 343.152 236.551 343.504C236.863 343.848 237.246 344.094 237.699 344.242C238.152 344.383 238.602 344.453 239.047 344.453C239.641 344.453 240.137 344.375 240.535 344.219C240.941 344.062 241.25 343.848 241.461 343.574C241.672 343.301 241.777 342.988 241.777 342.637ZM250.027 346H247.859V331.984C247.859 331.07 248.023 330.301 248.352 329.676C248.688 329.043 249.168 328.566 249.793 328.246C250.418 327.918 251.16 327.754 252.02 327.754C252.27 327.754 252.52 327.77 252.77 327.801C253.027 327.832 253.277 327.879 253.52 327.941L253.402 329.711C253.238 329.672 253.051 329.645 252.84 329.629C252.637 329.613 252.434 329.605 252.23 329.605C251.77 329.605 251.371 329.699 251.035 329.887C250.707 330.066 250.457 330.332 250.285 330.684C250.113 331.035 250.027 331.469 250.027 331.984V346ZM252.723 333.32V334.984H245.855V333.32H252.723ZM262.895 343.07V333.32H265.074V346H263L262.895 343.07ZM263.305 340.398L264.207 340.375C264.207 341.219 264.117 342 263.938 342.719C263.766 343.43 263.484 344.047 263.094 344.57C262.703 345.094 262.191 345.504 261.559 345.801C260.926 346.09 260.156 346.234 259.25 346.234C258.633 346.234 258.066 346.145 257.551 345.965C257.043 345.785 256.605 345.508 256.238 345.133C255.871 344.758 255.586 344.27 255.383 343.668C255.188 343.066 255.09 342.344 255.09 341.5V333.32H257.258V341.523C257.258 342.094 257.32 342.566 257.445 342.941C257.578 343.309 257.754 343.602 257.973 343.82C258.199 344.031 258.449 344.18 258.723 344.266C259.004 344.352 259.293 344.395 259.59 344.395C260.512 344.395 261.242 344.219 261.781 343.867C262.32 343.508 262.707 343.027 262.941 342.426C263.184 341.816 263.305 341.141 263.305 340.398ZM270.734 328V346H268.555V328H270.734Z" fill="black"/>
<path id="Thank you for your time." d="M133.523 365.625V377H132.039V365.625H133.523ZM137.18 365.625V366.859H128.391V365.625H137.18ZM140.094 365V377H138.648V365H140.094ZM139.75 372.453L139.148 372.43C139.154 371.852 139.24 371.318 139.406 370.828C139.573 370.333 139.807 369.904 140.109 369.539C140.411 369.174 140.771 368.893 141.188 368.695C141.609 368.492 142.076 368.391 142.586 368.391C143.003 368.391 143.378 368.448 143.711 368.562C144.044 368.672 144.328 368.849 144.562 369.094C144.802 369.339 144.984 369.656 145.109 370.047C145.234 370.432 145.297 370.904 145.297 371.461V377H143.844V371.445C143.844 371.003 143.779 370.648 143.648 370.383C143.518 370.112 143.328 369.917 143.078 369.797C142.828 369.672 142.521 369.609 142.156 369.609C141.797 369.609 141.469 369.685 141.172 369.836C140.88 369.987 140.628 370.195 140.414 370.461C140.206 370.727 140.042 371.031 139.922 371.375C139.807 371.714 139.75 372.073 139.75 372.453ZM152.445 375.555V371.203C152.445 370.87 152.378 370.581 152.242 370.336C152.112 370.086 151.914 369.893 151.648 369.758C151.383 369.622 151.055 369.555 150.664 369.555C150.299 369.555 149.979 369.617 149.703 369.742C149.432 369.867 149.219 370.031 149.062 370.234C148.911 370.438 148.836 370.656 148.836 370.891H147.391C147.391 370.589 147.469 370.289 147.625 369.992C147.781 369.695 148.005 369.427 148.297 369.188C148.594 368.943 148.948 368.75 149.359 368.609C149.776 368.464 150.24 368.391 150.75 368.391C151.365 368.391 151.906 368.495 152.375 368.703C152.849 368.911 153.219 369.227 153.484 369.648C153.755 370.065 153.891 370.589 153.891 371.219V375.156C153.891 375.438 153.914 375.737 153.961 376.055C154.013 376.372 154.089 376.646 154.188 376.875V377H152.68C152.607 376.833 152.549 376.612 152.508 376.336C152.466 376.055 152.445 375.794 152.445 375.555ZM152.695 371.875L152.711 372.891H151.25C150.839 372.891 150.471 372.924 150.148 372.992C149.826 373.055 149.555 373.151 149.336 373.281C149.117 373.411 148.951 373.576 148.836 373.773C148.721 373.966 148.664 374.193 148.664 374.453C148.664 374.719 148.724 374.961 148.844 375.18C148.964 375.398 149.143 375.573 149.383 375.703C149.628 375.828 149.927 375.891 150.281 375.891C150.724 375.891 151.115 375.797 151.453 375.609C151.792 375.422 152.06 375.193 152.258 374.922C152.461 374.651 152.57 374.388 152.586 374.133L153.203 374.828C153.167 375.047 153.068 375.289 152.906 375.555C152.745 375.82 152.529 376.076 152.258 376.32C151.992 376.56 151.674 376.76 151.305 376.922C150.94 377.078 150.529 377.156 150.07 377.156C149.497 377.156 148.995 377.044 148.562 376.82C148.135 376.596 147.802 376.297 147.562 375.922C147.328 375.542 147.211 375.117 147.211 374.648C147.211 374.195 147.299 373.797 147.477 373.453C147.654 373.104 147.909 372.815 148.242 372.586C148.576 372.352 148.977 372.174 149.445 372.055C149.914 371.935 150.438 371.875 151.016 371.875H152.695ZM157.609 370.352V377H156.164V368.547H157.531L157.609 370.352ZM157.266 372.453L156.664 372.43C156.669 371.852 156.755 371.318 156.922 370.828C157.089 370.333 157.323 369.904 157.625 369.539C157.927 369.174 158.286 368.893 158.703 368.695C159.125 368.492 159.591 368.391 160.102 368.391C160.518 368.391 160.893 368.448 161.227 368.562C161.56 368.672 161.844 368.849 162.078 369.094C162.318 369.339 162.5 369.656 162.625 370.047C162.75 370.432 162.812 370.904 162.812 371.461V377H161.359V371.445C161.359 371.003 161.294 370.648 161.164 370.383C161.034 370.112 160.844 369.917 160.594 369.797C160.344 369.672 160.036 369.609 159.672 369.609C159.312 369.609 158.984 369.685 158.688 369.836C158.396 369.987 158.143 370.195 157.93 370.461C157.721 370.727 157.557 371.031 157.438 371.375C157.323 371.714 157.266 372.073 157.266 372.453ZM166.461 365V377H165.008V365H166.461ZM171.625 368.547L167.938 372.492L165.875 374.633L165.758 373.094L167.234 371.328L169.859 368.547H171.625ZM170.305 377L167.289 372.969L168.039 371.68L172.008 377H170.305ZM179.461 376.125L181.812 368.547H183.359L179.969 378.305C179.891 378.513 179.786 378.737 179.656 378.977C179.531 379.221 179.37 379.453 179.172 379.672C178.974 379.891 178.734 380.068 178.453 380.203C178.177 380.344 177.846 380.414 177.461 380.414C177.346 380.414 177.201 380.398 177.023 380.367C176.846 380.336 176.721 380.31 176.648 380.289L176.641 379.117C176.682 379.122 176.747 379.128 176.836 379.133C176.93 379.143 176.995 379.148 177.031 379.148C177.359 379.148 177.638 379.104 177.867 379.016C178.096 378.932 178.289 378.789 178.445 378.586C178.607 378.388 178.745 378.115 178.859 377.766L179.461 376.125ZM177.734 368.547L179.93 375.109L180.305 376.633L179.266 377.164L176.156 368.547H177.734ZM184.156 372.867V372.688C184.156 372.078 184.245 371.513 184.422 370.992C184.599 370.466 184.854 370.01 185.188 369.625C185.521 369.234 185.924 368.932 186.398 368.719C186.872 368.5 187.404 368.391 187.992 368.391C188.586 368.391 189.12 368.5 189.594 368.719C190.073 368.932 190.479 369.234 190.812 369.625C191.151 370.01 191.409 370.466 191.586 370.992C191.763 371.513 191.852 372.078 191.852 372.688V372.867C191.852 373.477 191.763 374.042 191.586 374.562C191.409 375.083 191.151 375.539 190.812 375.93C190.479 376.315 190.076 376.617 189.602 376.836C189.133 377.049 188.602 377.156 188.008 377.156C187.414 377.156 186.88 377.049 186.406 376.836C185.932 376.617 185.526 376.315 185.188 375.93C184.854 375.539 184.599 375.083 184.422 374.562C184.245 374.042 184.156 373.477 184.156 372.867ZM185.602 372.688V372.867C185.602 373.289 185.651 373.688 185.75 374.062C185.849 374.432 185.997 374.76 186.195 375.047C186.398 375.333 186.651 375.56 186.953 375.727C187.255 375.888 187.607 375.969 188.008 375.969C188.404 375.969 188.75 375.888 189.047 375.727C189.349 375.56 189.599 375.333 189.797 375.047C189.995 374.76 190.143 374.432 190.242 374.062C190.346 373.688 190.398 373.289 190.398 372.867V372.688C190.398 372.271 190.346 371.878 190.242 371.508C190.143 371.133 189.992 370.802 189.789 370.516C189.591 370.224 189.341 369.995 189.039 369.828C188.742 369.661 188.393 369.578 187.992 369.578C187.596 369.578 187.247 369.661 186.945 369.828C186.648 369.995 186.398 370.224 186.195 370.516C185.997 370.802 185.849 371.133 185.75 371.508C185.651 371.878 185.602 372.271 185.602 372.688ZM198.836 375.047V368.547H200.289V377H198.906L198.836 375.047ZM199.109 373.266L199.711 373.25C199.711 373.812 199.651 374.333 199.531 374.812C199.417 375.286 199.229 375.698 198.969 376.047C198.708 376.396 198.367 376.669 197.945 376.867C197.523 377.06 197.01 377.156 196.406 377.156C195.995 377.156 195.617 377.096 195.273 376.977C194.935 376.857 194.643 376.672 194.398 376.422C194.154 376.172 193.964 375.846 193.828 375.445C193.698 375.044 193.633 374.562 193.633 374V368.547H195.078V374.016C195.078 374.396 195.12 374.711 195.203 374.961C195.292 375.206 195.409 375.401 195.555 375.547C195.706 375.688 195.872 375.786 196.055 375.844C196.242 375.901 196.435 375.93 196.633 375.93C197.247 375.93 197.734 375.812 198.094 375.578C198.453 375.339 198.711 375.018 198.867 374.617C199.029 374.211 199.109 373.76 199.109 373.266ZM208.617 377H207.172V367.656C207.172 367.047 207.281 366.534 207.5 366.117C207.724 365.695 208.044 365.378 208.461 365.164C208.878 364.945 209.372 364.836 209.945 364.836C210.112 364.836 210.279 364.846 210.445 364.867C210.617 364.888 210.784 364.919 210.945 364.961L210.867 366.141C210.758 366.115 210.633 366.096 210.492 366.086C210.357 366.076 210.221 366.07 210.086 366.07C209.779 366.07 209.513 366.133 209.289 366.258C209.07 366.378 208.904 366.555 208.789 366.789C208.674 367.023 208.617 367.312 208.617 367.656V377ZM210.414 368.547V369.656H205.836V368.547H210.414ZM211.641 372.867V372.688C211.641 372.078 211.729 371.513 211.906 370.992C212.083 370.466 212.339 370.01 212.672 369.625C213.005 369.234 213.409 368.932 213.883 368.719C214.357 368.5 214.888 368.391 215.477 368.391C216.07 368.391 216.604 368.5 217.078 368.719C217.557 368.932 217.964 369.234 218.297 369.625C218.635 370.01 218.893 370.466 219.07 370.992C219.247 371.513 219.336 372.078 219.336 372.688V372.867C219.336 373.477 219.247 374.042 219.07 374.562C218.893 375.083 218.635 375.539 218.297 375.93C217.964 376.315 217.56 376.617 217.086 376.836C216.617 377.049 216.086 377.156 215.492 377.156C214.898 377.156 214.365 377.049 213.891 376.836C213.417 376.617 213.01 376.315 212.672 375.93C212.339 375.539 212.083 375.083 211.906 374.562C211.729 374.042 211.641 373.477 211.641 372.867ZM213.086 372.688V372.867C213.086 373.289 213.135 373.688 213.234 374.062C213.333 374.432 213.482 374.76 213.68 375.047C213.883 375.333 214.135 375.56 214.438 375.727C214.74 375.888 215.091 375.969 215.492 375.969C215.888 375.969 216.234 375.888 216.531 375.727C216.833 375.56 217.083 375.333 217.281 375.047C217.479 374.76 217.628 374.432 217.727 374.062C217.831 373.688 217.883 373.289 217.883 372.867V372.688C217.883 372.271 217.831 371.878 217.727 371.508C217.628 371.133 217.477 370.802 217.273 370.516C217.076 370.224 216.826 369.995 216.523 369.828C216.227 369.661 215.878 369.578 215.477 369.578C215.081 369.578 214.732 369.661 214.43 369.828C214.133 369.995 213.883 370.224 213.68 370.516C213.482 370.802 213.333 371.133 213.234 371.508C213.135 371.878 213.086 372.271 213.086 372.688ZM222.594 369.875V377H221.148V368.547H222.555L222.594 369.875ZM225.234 368.5L225.227 369.844C225.107 369.818 224.992 369.802 224.883 369.797C224.779 369.786 224.659 369.781 224.523 369.781C224.19 369.781 223.896 369.833 223.641 369.938C223.385 370.042 223.169 370.188 222.992 370.375C222.815 370.562 222.674 370.786 222.57 371.047C222.471 371.302 222.406 371.583 222.375 371.891L221.969 372.125C221.969 371.615 222.018 371.135 222.117 370.688C222.221 370.24 222.38 369.844 222.594 369.5C222.807 369.151 223.078 368.88 223.406 368.688C223.74 368.49 224.135 368.391 224.594 368.391C224.698 368.391 224.818 368.404 224.953 368.43C225.089 368.451 225.182 368.474 225.234 368.5ZM232.914 376.125L235.266 368.547H236.812L233.422 378.305C233.344 378.513 233.24 378.737 233.109 378.977C232.984 379.221 232.823 379.453 232.625 379.672C232.427 379.891 232.188 380.068 231.906 380.203C231.63 380.344 231.299 380.414 230.914 380.414C230.799 380.414 230.654 380.398 230.477 380.367C230.299 380.336 230.174 380.31 230.102 380.289L230.094 379.117C230.135 379.122 230.201 379.128 230.289 379.133C230.383 379.143 230.448 379.148 230.484 379.148C230.812 379.148 231.091 379.104 231.32 379.016C231.549 378.932 231.742 378.789 231.898 378.586C232.06 378.388 232.198 378.115 232.312 377.766L232.914 376.125ZM231.188 368.547L233.383 375.109L233.758 376.633L232.719 377.164L229.609 368.547H231.188ZM237.609 372.867V372.688C237.609 372.078 237.698 371.513 237.875 370.992C238.052 370.466 238.307 370.01 238.641 369.625C238.974 369.234 239.378 368.932 239.852 368.719C240.326 368.5 240.857 368.391 241.445 368.391C242.039 368.391 242.573 368.5 243.047 368.719C243.526 368.932 243.932 369.234 244.266 369.625C244.604 370.01 244.862 370.466 245.039 370.992C245.216 371.513 245.305 372.078 245.305 372.688V372.867C245.305 373.477 245.216 374.042 245.039 374.562C244.862 375.083 244.604 375.539 244.266 375.93C243.932 376.315 243.529 376.617 243.055 376.836C242.586 377.049 242.055 377.156 241.461 377.156C240.867 377.156 240.333 377.049 239.859 376.836C239.385 376.617 238.979 376.315 238.641 375.93C238.307 375.539 238.052 375.083 237.875 374.562C237.698 374.042 237.609 373.477 237.609 372.867ZM239.055 372.688V372.867C239.055 373.289 239.104 373.688 239.203 374.062C239.302 374.432 239.451 374.76 239.648 375.047C239.852 375.333 240.104 375.56 240.406 375.727C240.708 375.888 241.06 375.969 241.461 375.969C241.857 375.969 242.203 375.888 242.5 375.727C242.802 375.56 243.052 375.333 243.25 375.047C243.448 374.76 243.596 374.432 243.695 374.062C243.799 373.688 243.852 373.289 243.852 372.867V372.688C243.852 372.271 243.799 371.878 243.695 371.508C243.596 371.133 243.445 370.802 243.242 370.516C243.044 370.224 242.794 369.995 242.492 369.828C242.195 369.661 241.846 369.578 241.445 369.578C241.049 369.578 240.701 369.661 240.398 369.828C240.102 369.995 239.852 370.224 239.648 370.516C239.451 370.802 239.302 371.133 239.203 371.508C239.104 371.878 239.055 372.271 239.055 372.688ZM252.289 375.047V368.547H253.742V377H252.359L252.289 375.047ZM252.562 373.266L253.164 373.25C253.164 373.812 253.104 374.333 252.984 374.812C252.87 375.286 252.682 375.698 252.422 376.047C252.161 376.396 251.82 376.669 251.398 376.867C250.977 377.06 250.464 377.156 249.859 377.156C249.448 377.156 249.07 377.096 248.727 376.977C248.388 376.857 248.096 376.672 247.852 376.422C247.607 376.172 247.417 375.846 247.281 375.445C247.151 375.044 247.086 374.562 247.086 374V368.547H248.531V374.016C248.531 374.396 248.573 374.711 248.656 374.961C248.745 375.206 248.862 375.401 249.008 375.547C249.159 375.688 249.326 375.786 249.508 375.844C249.695 375.901 249.888 375.93 250.086 375.93C250.701 375.93 251.188 375.812 251.547 375.578C251.906 375.339 252.164 375.018 252.32 374.617C252.482 374.211 252.562 373.76 252.562 373.266ZM257.391 369.875V377H255.945V368.547H257.352L257.391 369.875ZM260.031 368.5L260.023 369.844C259.904 369.818 259.789 369.802 259.68 369.797C259.576 369.786 259.456 369.781 259.32 369.781C258.987 369.781 258.693 369.833 258.438 369.938C258.182 370.042 257.966 370.188 257.789 370.375C257.612 370.562 257.471 370.786 257.367 371.047C257.268 371.302 257.203 371.583 257.172 371.891L256.766 372.125C256.766 371.615 256.815 371.135 256.914 370.688C257.018 370.24 257.177 369.844 257.391 369.5C257.604 369.151 257.875 368.88 258.203 368.688C258.536 368.49 258.932 368.391 259.391 368.391C259.495 368.391 259.615 368.404 259.75 368.43C259.885 368.451 259.979 368.474 260.031 368.5ZM268.875 368.547V369.656H264.305V368.547H268.875ZM265.852 366.492H267.297V374.906C267.297 375.193 267.341 375.409 267.43 375.555C267.518 375.701 267.633 375.797 267.773 375.844C267.914 375.891 268.065 375.914 268.227 375.914C268.346 375.914 268.471 375.904 268.602 375.883C268.737 375.857 268.839 375.836 268.906 375.82L268.914 377C268.799 377.036 268.648 377.07 268.461 377.102C268.279 377.138 268.057 377.156 267.797 377.156C267.443 377.156 267.117 377.086 266.82 376.945C266.523 376.805 266.286 376.57 266.109 376.242C265.938 375.909 265.852 375.461 265.852 374.898V366.492ZM272.141 368.547V377H270.688V368.547H272.141ZM270.578 366.305C270.578 366.07 270.648 365.872 270.789 365.711C270.935 365.549 271.148 365.469 271.43 365.469C271.706 365.469 271.917 365.549 272.062 365.711C272.214 365.872 272.289 366.07 272.289 366.305C272.289 366.529 272.214 366.721 272.062 366.883C271.917 367.039 271.706 367.117 271.43 367.117C271.148 367.117 270.935 367.039 270.789 366.883C270.648 366.721 270.578 366.529 270.578 366.305ZM275.898 370.227V377H274.445V368.547H275.82L275.898 370.227ZM275.602 372.453L274.93 372.43C274.935 371.852 275.01 371.318 275.156 370.828C275.302 370.333 275.518 369.904 275.805 369.539C276.091 369.174 276.448 368.893 276.875 368.695C277.302 368.492 277.797 368.391 278.359 368.391C278.755 368.391 279.12 368.448 279.453 368.562C279.786 368.672 280.076 368.846 280.32 369.086C280.565 369.326 280.755 369.633 280.891 370.008C281.026 370.383 281.094 370.836 281.094 371.367V377H279.648V371.438C279.648 370.995 279.573 370.641 279.422 370.375C279.276 370.109 279.068 369.917 278.797 369.797C278.526 369.672 278.208 369.609 277.844 369.609C277.417 369.609 277.06 369.685 276.773 369.836C276.487 369.987 276.258 370.195 276.086 370.461C275.914 370.727 275.789 371.031 275.711 371.375C275.638 371.714 275.602 372.073 275.602 372.453ZM281.078 371.656L280.109 371.953C280.115 371.49 280.19 371.044 280.336 370.617C280.487 370.19 280.703 369.81 280.984 369.477C281.271 369.143 281.622 368.88 282.039 368.688C282.456 368.49 282.932 368.391 283.469 368.391C283.922 368.391 284.323 368.451 284.672 368.57C285.026 368.69 285.323 368.875 285.562 369.125C285.807 369.37 285.992 369.685 286.117 370.07C286.242 370.456 286.305 370.914 286.305 371.445V377H284.852V371.43C284.852 370.956 284.776 370.589 284.625 370.328C284.479 370.062 284.271 369.878 284 369.773C283.734 369.664 283.417 369.609 283.047 369.609C282.729 369.609 282.448 369.664 282.203 369.773C281.958 369.883 281.753 370.034 281.586 370.227C281.419 370.414 281.292 370.63 281.203 370.875C281.12 371.12 281.078 371.38 281.078 371.656ZM292 377.156C291.411 377.156 290.878 377.057 290.398 376.859C289.924 376.656 289.516 376.372 289.172 376.008C288.833 375.643 288.573 375.211 288.391 374.711C288.208 374.211 288.117 373.664 288.117 373.07V372.742C288.117 372.055 288.219 371.443 288.422 370.906C288.625 370.365 288.901 369.906 289.25 369.531C289.599 369.156 289.995 368.872 290.438 368.68C290.88 368.487 291.339 368.391 291.812 368.391C292.417 368.391 292.938 368.495 293.375 368.703C293.818 368.911 294.18 369.203 294.461 369.578C294.742 369.948 294.951 370.385 295.086 370.891C295.221 371.391 295.289 371.938 295.289 372.531V373.18H288.977V372H293.844V371.891C293.823 371.516 293.745 371.151 293.609 370.797C293.479 370.443 293.271 370.151 292.984 369.922C292.698 369.693 292.307 369.578 291.812 369.578C291.484 369.578 291.182 369.648 290.906 369.789C290.63 369.924 290.393 370.128 290.195 370.398C289.997 370.669 289.844 371 289.734 371.391C289.625 371.781 289.57 372.232 289.57 372.742V373.07C289.57 373.471 289.625 373.849 289.734 374.203C289.849 374.552 290.013 374.859 290.227 375.125C290.445 375.391 290.708 375.599 291.016 375.75C291.328 375.901 291.682 375.977 292.078 375.977C292.589 375.977 293.021 375.872 293.375 375.664C293.729 375.456 294.039 375.177 294.305 374.828L295.18 375.523C294.997 375.799 294.766 376.062 294.484 376.312C294.203 376.562 293.857 376.766 293.445 376.922C293.039 377.078 292.557 377.156 292 377.156ZM298.695 365.625L298.594 373.789H297.289L297.18 365.625H298.695ZM297.133 376.273C297.133 376.039 297.203 375.841 297.344 375.68C297.49 375.518 297.703 375.438 297.984 375.438C298.26 375.438 298.471 375.518 298.617 375.68C298.768 375.841 298.844 376.039 298.844 376.273C298.844 376.497 298.768 376.69 298.617 376.852C298.471 377.013 298.26 377.094 297.984 377.094C297.703 377.094 297.49 377.013 297.344 376.852C297.203 376.69 297.133 376.497 297.133 376.273Z" fill="#656565"/>
</g>
</g>
</g>
<defs>
<linearGradient id="paint0_linear_9_176" x1="185.205" y1="231.434" x2="211.156" y2="241.032" gradientUnits="userSpaceOnUse">
<stop stop-color="#00A91B"/>
<stop offset="1" stop-color="#00A91B"/>
</linearGradient>
<clipPath id="clip0_9_176">
<rect width="428" height="926" fill="white"/>
</clipPath>
</defs>
</svg>
