<svg width="35" height="35" viewBox="0 0 35 35" fill="none" xmlns="http://www.w3.org/2000/svg">
<path d="M13.1579 34.3396C13.1579 34.7043 13.3998 35 13.6982 35H21.6965C21.9949 35 22.2368 34.7043 22.2368 34.3396V20.1415C22.2368 19.7768 21.9949 19.4811 21.6965 19.4811H13.6982C13.3998 19.4811 13.1579 19.7768 13.1579 20.1415V34.3396Z" fill="#F76D0A"/>
<path d="M25.3947 34.3396C25.3947 34.7043 25.6366 35 25.935 35H32.8947C34.0574 35 35 33.8174 35 32.3585V20.1415C35 19.7768 34.7581 19.4811 34.4597 19.4811H25.935C25.6366 19.4811 25.3947 19.7768 25.3947 20.1415V34.3396Z" fill="#F76D0A"/>
<path d="M34.4597 15.5189C34.7581 15.5189 35 15.2232 35 14.8585V2.64151C35 1.18264 34.0574 0 32.8947 0H13.6982C13.3998 0 13.1579 0.295661 13.1579 0.660377V14.8585C13.1579 15.2232 13.3998 15.5189 13.6982 15.5189L34.4597 15.5189Z" fill="#F76D0A"/>
<path d="M10 0.660381C10 0.295665 9.75809 0 9.45969 0H2.10526C0.942558 0 0 1.18264 0 2.64151V32.3585C0 33.8174 0.942559 35 2.10526 35H9.45969C9.75809 35 10 34.7043 10 34.3396V0.660381Z" fill="#F76D0A"/>
</svg>
