<svg width="29" height="35" viewBox="0 0 29 35" fill="none" xmlns="http://www.w3.org/2000/svg">
<path fill-rule="evenodd" clip-rule="evenodd" d="M0 3C0 1.34315 1.34315 0 3 0H15.2574C16.053 0 16.8161 0.31607 17.3787 0.87868L23.1213 6.62132C23.6839 7.18393 24 7.94699 24 8.74264V27C24 28.6569 22.6569 30 21 30H3C1.34315 30 0 28.6569 0 27V3ZM6 22.5C6 21.6716 6.67157 21 7.5 21H16.5C17.3284 21 18 21.6716 18 22.5C18 23.3284 17.3284 24 16.5 24H7.5C6.67157 24 6 23.3284 6 22.5ZM12.0243 10.4597C13.5653 10.4597 14.8145 9.21483 14.8145 7.67924C14.8145 6.14365 13.5653 4.8988 12.0243 4.8988C10.4834 4.8988 9.23415 6.14365 9.23415 7.67924C9.23415 9.21483 10.4834 10.4597 12.0243 10.4597ZM7.03002 13.7754C7.94681 12.5018 9.31686 11.5439 12.0243 11.5439C14.7317 11.5439 16.0532 12.5018 16.97 13.7754C17.856 15.0062 17.9972 16.0012 18 16.7819C18.0028 17.5669 17.3424 18.0792 16.6653 18.0792H7.33469C6.65759 18.0792 5.99718 17.5669 6.00001 16.7819C6.00283 16.0012 6.14395 15.0062 7.03002 13.7754Z" fill="#F76D0A"/>
<path d="M28.497 11.5851C28.497 10.7567 27.8255 10.0851 26.997 10.0851C26.1686 10.0851 25.497 10.7567 25.497 11.5851V29.9999C25.497 30.8283 24.8255 31.4999 23.997 31.4999H5.12109C4.29267 31.4999 3.62109 32.1714 3.62109 32.9999C3.62109 33.8283 4.29267 34.4999 5.12109 34.4999H23.997C26.4823 34.4999 28.497 32.4851 28.497 29.9999V11.5851Z" fill="#F76D0A"/>
</svg>
