<svg width="27" height="30" viewBox="0 0 27 30" fill="none" xmlns="http://www.w3.org/2000/svg">
<path fill-rule="evenodd" clip-rule="evenodd" d="M2.21494 19.8153C4.18641 17.067 7.67795 15 13.4999 15C19.3219 15 22.8134 17.067 24.7849 19.8153C26.6903 22.4714 26.9938 25.5158 26.9998 27.2004C27.0059 28.8943 25.5858 30 24.1297 30H2.8701C1.41408 30 -0.00607355 28.8943 1.95363e-05 27.2004C0.006079 25.5158 0.309557 22.4714 2.21494 19.8153Z" fill="#F76D0A"/>
<path fill-rule="evenodd" clip-rule="evenodd" d="M13.5001 12C16.8138 12 19.5001 9.31371 19.5001 6C19.5001 2.68629 16.8138 0 13.5001 0C10.1864 0 7.50007 2.68629 7.50007 6C7.50007 9.31371 10.1864 12 13.5001 12Z" fill="#F76D0A"/>
</svg>
