<svg width="184" height="182" viewBox="0 0 184 182" fill="none" xmlns="http://www.w3.org/2000/svg">
<g style="mix-blend-mode:overlay">
<path d="M138 141.556C143.081 141.556 147.2 137.029 147.2 131.444C147.2 125.86 143.081 121.333 138 121.333C132.919 121.333 128.8 125.86 128.8 131.444C128.8 137.029 132.919 141.556 138 141.556Z" fill="white"/>
<path fill-rule="evenodd" clip-rule="evenodd" d="M36.8 10.1111C36.8 4.5269 40.919 0 46 0C51.081 0 55.2 4.5269 55.2 10.1111V20.2222H128.8V10.1111C128.8 4.5269 132.919 0 138 0C143.081 0 147.2 4.5269 147.2 10.1111V20.2222H156.4C171.643 20.2222 184 33.8029 184 50.5556V151.667C184 168.419 171.643 182 156.4 182H27.6C12.3569 182 0 168.419 0 151.667V50.5556C0 33.8029 12.3569 20.2222 27.6 20.2222H36.8V10.1111ZM18.4 151.667V80.8889H165.6V151.667C165.6 157.251 161.481 161.778 156.4 161.778H27.6C22.519 161.778 18.4 157.251 18.4 151.667Z" fill="white"/>
</g>
</svg>
