<svg width="244" height="184" viewBox="0 0 244 184" fill="none" xmlns="http://www.w3.org/2000/svg">
<g style="mix-blend-mode:overlay">
<path d="M122.002 79.4105C142.216 79.4105 158.603 61.6338 158.603 39.7053C158.603 17.7766 142.216 0 122.002 0C101.788 0 85.4017 17.7766 85.4017 39.7053C85.4017 61.6338 101.788 79.4105 122.002 79.4105Z" fill="white"/>
<path d="M79.5417 54.7147C79.5417 71.2257 67.2035 84.6104 51.9835 84.6104C36.7636 84.6104 24.4253 71.2257 24.4253 54.7147C24.4253 38.2038 36.7636 24.819 51.9835 24.819C67.2035 24.819 79.5417 38.2038 79.5417 54.7147Z" fill="white"/>
<path d="M122 91.2279C94.8547 91.2279 78.575 102.189 69.3828 116.763C60.4987 130.849 59.0836 160.22 59.0553 169.153C59.0269 178.137 65.6485 184 72.4374 184H171.563C178.352 184 184.973 178.137 184.945 169.153C184.917 160.22 183.502 130.849 174.618 116.763C165.426 102.189 149.146 91.2279 122 91.2279Z" fill="white"/>
<path d="M66.2367 99.8791C63.0666 103.145 60.3234 106.691 57.9639 110.432C47.1504 127.576 45.428 160.453 45.3936 171.327C45.3867 173.512 45.7031 175.545 46.2797 177.401H11.0518C5.44516 177.401 -0.0233872 172.558 7.52275e-05 165.139C0.0234082 157.762 1.19215 131.202 8.52915 119.569C16.1206 107.533 29.5653 98.4806 51.9838 98.4806C57.2091 98.4806 61.9469 98.9724 66.2367 99.8791Z" fill="white"/>
<path d="M197.737 177.401C198.313 175.545 198.63 173.512 198.623 171.327C198.588 160.453 196.866 127.576 186.053 110.432C183.692 106.689 180.948 103.143 177.777 99.8763C182.063 98.9713 186.797 98.4806 192.017 98.4806C214.435 98.4806 227.88 107.533 235.471 119.569C242.808 131.202 243.977 157.762 244 165.139C244.023 172.558 238.555 177.401 232.948 177.401H197.737Z" fill="white"/>
<path d="M219.574 54.7147C219.574 71.2257 207.236 84.6104 192.016 84.6104C176.796 84.6104 164.458 71.2257 164.458 54.7147C164.458 38.2038 176.796 24.819 192.016 24.819C207.236 24.819 219.574 38.2038 219.574 54.7147Z" fill="white"/>
</g>
</svg>
